<svg width="16" height="16" viewBox="0 0 16 16" fill="none" xmlns="http://www.w3.org/2000/svg">
<path d="M13 3.6665L12.5869 10.3499C12.4813 12.0574 12.4285 12.9112 12.0005 13.5251C11.7889 13.8286 11.5165 14.0847 11.2005 14.2772C10.5614 14.6665 9.706 14.6665 7.99513 14.6665C6.28208 14.6665 5.42553 14.6665 4.78603 14.2764C4.46987 14.0836 4.19733 13.827 3.98579 13.523C3.55792 12.9082 3.5063 12.0532 3.40307 10.3433L3 3.6665" stroke="#D81616" stroke-width="1.5" stroke-linecap="round"/>
<path d="M14 3.6665H2" stroke="#D81616" stroke-width="1.5" stroke-linecap="round"/>
<path opacity="0.4" d="M10.7053 3.66683L10.2502 2.72798C9.94786 2.10434 9.79672 1.79251 9.53599 1.59804C9.47812 1.5549 9.41692 1.51652 9.35286 1.4833C9.06412 1.3335 8.71759 1.3335 8.02452 1.3335C7.31406 1.3335 6.95879 1.3335 6.66529 1.48958C6.60023 1.52417 6.53816 1.5641 6.4797 1.60894C6.21592 1.8113 6.06858 2.13453 5.7739 2.781L5.37012 3.66683" stroke="#D81616" stroke-width="1.5" stroke-linecap="round"/>
<path opacity="0.4" d="M6.33301 11V7" stroke="#D81616" stroke-width="1.5" stroke-linecap="round"/>
<path opacity="0.4" d="M9.66699 11V7" stroke="#D81616" stroke-width="1.5" stroke-linecap="round"/>
</svg>
