<svg width="16" height="16" viewBox="0 0 16 16" fill="none" xmlns="http://www.w3.org/2000/svg">
<g clip-path="url(#clip0_37_567)">
<path d="M9.38245 2.59029C9.87925 2.05205 10.1276 1.78293 10.3916 1.62595C11.0284 1.24717 11.8127 1.23539 12.4602 1.59487C12.7286 1.74386 12.9846 2.00541 13.4966 2.5285C14.0087 3.05159 14.2648 3.31314 14.4106 3.58728C14.7625 4.24874 14.751 5.04986 14.3802 5.70046C14.2265 5.9701 13.963 6.22385 13.4362 6.73133L7.16705 12.7695C6.16857 13.7313 5.66931 14.2121 5.04535 14.4558C4.42139 14.6995 3.73545 14.6816 2.36355 14.6457L2.1769 14.6409C1.75925 14.6299 1.55043 14.6245 1.42904 14.4867C1.30765 14.3489 1.32422 14.1362 1.35737 13.7108L1.37537 13.4798C1.46865 12.2823 1.51529 11.6837 1.74912 11.1455C1.98294 10.6073 2.38627 10.1703 3.19293 9.29633L9.38245 2.59029Z" stroke="#0560FD" stroke-width="1.5" stroke-linejoin="round"/>
<path opacity="0.4" d="M8.66669 2.66667L13.3334 7.33334" stroke="#0560FD" stroke-width="1.5" stroke-linejoin="round"/>
<path opacity="0.4" d="M9.33331 14.6667H14.6666" stroke="#0560FD" stroke-width="1.5" stroke-linecap="round" stroke-linejoin="round"/>
</g>
<defs>
<clipPath id="clip0_37_567">
<rect width="16" height="16" fill="white"/>
</clipPath>
</defs>
</svg>
