<svg width="20" height="20" viewBox="0 0 20 20" fill="none" xmlns="http://www.w3.org/2000/svg">
<path d="M17.9537 9.204C18.207 9.55925 18.3337 9.73692 18.3337 9.99984C18.3337 10.2628 18.207 10.4404 17.9537 10.7957C16.8152 12.392 13.908 15.8332 10.0003 15.8332C6.09264 15.8332 3.18541 12.392 2.04703 10.7957C1.79367 10.4404 1.66699 10.2628 1.66699 9.99984C1.66699 9.73692 1.79367 9.55925 2.04703 9.204C3.18541 7.6077 6.09264 4.1665 10.0003 4.1665C13.908 4.1665 16.8152 7.6077 17.9537 9.204Z" stroke="#BCBCC4" stroke-width="1.5"/>
<path d="M12.5 10C12.5 8.61925 11.3807 7.5 10 7.5C8.61925 7.5 7.5 8.61925 7.5 10C7.5 11.3807 8.61925 12.5 10 12.5C11.3807 12.5 12.5 11.3807 12.5 10Z" stroke="#BCBCC4" stroke-width="1.5"/>
</svg>
