<svg width="22" height="22" viewBox="0 0 22 22" fill="none" xmlns="http://www.w3.org/2000/svg">
<path d="M2.93335 10.633C2.93335 6.48465 2.93335 4.41047 4.22208 3.12174C5.51081 1.83301 7.58499 1.83301 11.7333 1.83301C15.8817 1.83301 17.9559 1.83301 19.2447 3.12174C20.5333 4.41047 20.5333 6.48465 20.5333 10.633C20.5333 14.7813 20.5333 16.8555 19.2447 18.1443C17.9559 19.433 15.8817 19.433 11.7333 19.433C7.58499 19.433 5.51081 19.433 4.22208 18.1443C2.93335 16.8555 2.93335 14.7813 2.93335 10.633Z" stroke="#BCBCC4" stroke-width="1.25"/>
<path d="M8.8916 10.542H14.3917" stroke="#BCBCC4" stroke-width="1.25" stroke-linecap="round" stroke-linejoin="round"/>
<path d="M9.80835 13.75H13.475" stroke="#BCBCC4" stroke-width="1.25" stroke-linecap="round" stroke-linejoin="round"/>
<path d="M7.9751 7.33301H15.3084" stroke="#BCBCC4" stroke-width="1.25" stroke-linecap="round" stroke-linejoin="round"/>
</svg>
