<svg width="22" height="22" viewBox="0 0 22 22" fill="none" xmlns="http://www.w3.org/2000/svg">
<path d="M6.35937 9.16666C5.72602 9.17134 5.34491 9.19077 5.04134 9.27116C3.65973 9.63701 2.71382 10.8752 2.75106 12.2693C2.76185 12.6731 2.91557 13.1721 3.223 14.1703C3.96288 16.5724 5.20633 18.6577 7.99191 19.1581C8.50395 19.25 9.08014 19.25 10.2325 19.25H11.7675C12.9199 19.25 13.4961 19.25 14.0081 19.1581C16.7937 18.6577 18.0372 16.5724 18.777 14.1703C19.0844 13.1721 19.2382 12.6731 19.2489 12.2693C19.2862 10.8752 18.3403 9.63701 16.9587 9.27116C16.6551 9.19077 16.2739 9.17134 15.6406 9.16666" stroke="#0560FD" stroke-width="2" stroke-linecap="round"/>
<path opacity="0.4" d="M10.9999 2.75V12.8333M10.9999 2.75C11.4293 2.75 11.7556 3.15159 12.4083 3.95478L13.2916 5.04167M10.9999 2.75C10.5706 2.75 10.2442 3.15159 9.59155 3.95478L8.70825 5.04167" stroke="#0560FD" stroke-width="2" stroke-linecap="round" stroke-linejoin="round"/>
</svg>
