<svg width="22" height="22" viewBox="0 0 22 22" fill="none" xmlns="http://www.w3.org/2000/svg">
<path d="M19.2499 11V11.4583C19.2499 15.5634 19.2499 17.616 17.9747 18.8914C16.6993 20.1667 14.6467 20.1667 10.5416 20.1667C6.43644 20.1667 4.38387 20.1667 3.10856 18.8914C1.83325 17.616 1.83325 15.5634 1.83325 11.4583C1.83325 7.35319 1.83325 5.30062 3.10856 4.0253C4.38387 2.75 6.43644 2.75 10.5416 2.75H10.9999" stroke="#676D7C" stroke-width="1.375" stroke-linecap="round" stroke-linejoin="round"/>
<path opacity="0.4" d="M20.1667 5.04183C20.1667 6.81375 18.7302 8.25016 16.9583 8.25016C15.1864 8.25016 13.75 6.81375 13.75 5.04183C13.75 3.26991 15.1864 1.8335 16.9583 1.8335C18.7302 1.8335 20.1667 3.26991 20.1667 5.04183Z" stroke="#676D7C" stroke-width="1.375"/>
<path d="M19.2499 12.8335H14.7347C13.9628 12.8335 13.3563 13.4785 13.0161 14.1601C12.6465 14.9007 11.9064 15.5835 10.5416 15.5835C9.17676 15.5835 8.43667 14.9007 8.06708 14.1601C7.72689 13.4785 7.12037 12.8335 6.34844 12.8335H1.83325" stroke="#676D7C" stroke-width="1.375" stroke-linejoin="round"/>
</svg>
