<svg width="144" height="25" viewBox="0 0 144 25" fill="none" xmlns="http://www.w3.org/2000/svg">
<path fill-rule="evenodd" clip-rule="evenodd" d="M0.096438 11.8362L0.0970648 11.8364C0.0968658 11.8364 0.0966534 11.8363 0.096438 11.8362ZM0.097991 11.8365C0.0976838 11.8365 0.0973751 11.8364 0.0970648 11.8364C0.0974002 11.8364 0.0976964 11.8362 0.0978987 11.8362C0.0980393 11.8361 0.0981346 11.8361 0.0981664 11.8361C0.0982035 11.8361 0.0981545 11.8362 0.097991 11.8365ZM2.89307 9.16245C2.88863 9.16154 2.88407 9.16036 2.87938 9.15889C2.85111 9.17886 2.83177 9.19427 2.81339 9.21076C2.16574 9.79176 1.53746 10.3931 0.925482 11.0115C0.903131 11.0341 0.883707 11.0596 0.871961 11.0875C0.864612 11.0898 0.857218 11.0919 0.849774 11.094C0.803025 11.1363 0.764165 11.1737 0.726738 11.2124C0.664318 11.2771 0.60199 11.3419 0.539663 11.4067L0.539464 11.4069L0.539265 11.4071L0.539066 11.4073L0.538401 11.408L0.5375 11.4089C0.416993 11.5342 0.296487 11.6594 0.175323 11.784C0.170157 11.7893 0.165399 11.7955 0.160591 11.8018C0.145232 11.8219 0.129357 11.8427 0.097991 11.8365L0.097855 11.8368L0.0976505 11.8371C0.0972603 11.8378 0.0966314 11.8389 0.0956919 11.8405C0.084283 11.8548 0.0762367 11.8615 0.0680432 11.8667C0.0684722 11.8657 0.0664112 11.8662 0.0611013 11.8746C0.0506477 11.8868 0.0453364 11.8908 0.0397542 11.8951L0.0394832 11.8953C0.0391131 11.8956 0.038888 11.8966 0.0344613 11.9039C0.0324938 11.9096 0.0308775 11.9149 0.029371 11.9199C0.0246096 11.9355 0.0209436 11.9476 0.0107422 11.9566C0.0107774 11.9566 0.0108099 11.9566 0.0108394 11.9566C0.0108911 11.9566 0.0109338 11.9566 0.0109662 11.9566C0.0106141 11.9568 0.00894008 11.9581 0.00482427 11.9646C-0.00416506 11.9899 0.000101092 12.0034 0.0118965 12.0249C0.0258217 12.0937 0.0614973 12.1406 0.100756 12.1924L0.105525 12.1986C0.117721 12.2105 0.124059 12.218 0.129409 12.225C0.128921 12.2246 0.128456 12.2263 0.136092 12.2327C0.136945 12.2336 0.137797 12.2344 0.138648 12.2353C0.135568 12.2354 0.132507 12.2357 0.129469 12.2361C0.22485 12.4349 0.331471 12.6155 0.465039 12.7868C0.462782 12.7905 0.460603 12.7942 0.458508 12.7981C0.479689 12.833 0.500565 12.8676 0.521261 12.9018L0.521297 12.9019L0.521322 12.9019C0.600048 13.0323 0.67617 13.1583 0.75656 13.2815C0.858005 13.437 0.966265 13.5881 1.08104 13.7466C1.08261 13.7476 1.08418 13.7486 1.08574 13.7496C1.08241 13.75 1.07906 13.7504 1.07569 13.7508C1.08491 13.7654 1.09383 13.7797 1.10257 13.7937C1.13607 13.8475 1.16687 13.897 1.20167 13.9434C1.23524 13.9882 1.2672 14.0342 1.29932 14.0805L1.29933 14.0805L1.29938 14.0806C1.36806 14.1794 1.43752 14.2794 1.52523 14.3713C1.52709 14.3719 1.52895 14.3726 1.5308 14.3732C1.52921 14.3737 1.52763 14.3741 1.52604 14.3746C1.52393 14.3752 1.52181 14.3758 1.5197 14.3764L1.52474 14.3837C1.60893 14.5057 1.68777 14.6199 1.79649 14.7205L1.79734 14.7205C1.79382 14.7238 1.79034 14.7272 1.7869 14.7308C1.95302 14.9685 2.1283 15.1864 2.30793 15.4008C2.31463 15.4088 2.32075 15.4175 2.32697 15.4264L2.32698 15.4264L2.327 15.4264C2.34639 15.4539 2.36682 15.4829 2.40924 15.4976C2.41139 15.499 2.41352 15.5005 2.41565 15.5018C2.41686 15.5026 2.41806 15.5034 2.41926 15.5042C2.41375 15.5042 2.4082 15.5042 2.40263 15.5041C2.58857 15.7466 2.78248 15.9691 2.98139 16.1871C2.99468 16.2017 3.00739 16.2168 3.02023 16.2322L3.02027 16.2322C3.05818 16.2775 3.09712 16.324 3.15502 16.3596C3.15655 16.3605 3.15807 16.3615 3.15958 16.3623L3.15459 16.3635L3.14995 16.3646C3.30109 16.5316 3.44585 16.6907 3.59384 16.8466C3.60936 16.863 3.62465 16.8796 3.63996 16.8962L3.63998 16.8962C3.70677 16.9688 3.77402 17.0419 3.86334 17.0964C3.86224 17.1011 3.86129 17.1061 3.8605 17.1112C4.03306 17.2966 4.21377 17.466 4.39342 17.6344L4.39346 17.6344C4.46107 17.6978 4.52854 17.7611 4.59536 17.825C4.62572 17.854 4.66107 17.8778 4.69917 17.8953C4.70014 17.9017 4.70144 17.9083 4.70309 17.9152C4.93805 18.1257 5.16724 18.3289 5.39864 18.5295C5.41145 18.5406 5.42417 18.5518 5.43691 18.5631L5.43693 18.5631C5.50439 18.6228 5.5726 18.6831 5.65996 18.727C5.65926 18.731 5.65873 18.7351 5.65836 18.7394C5.94313 18.9796 6.2305 19.2015 6.52154 19.4188C6.5356 19.4293 6.55264 19.4358 6.57043 19.4355C6.57116 19.4375 6.57194 19.4396 6.57275 19.4416C6.5736 19.4438 6.5745 19.4459 6.57544 19.4481C6.57629 19.4501 6.57718 19.4521 6.57811 19.4542C7.02745 19.7931 7.48564 20.1033 7.9512 20.4026C8.07981 20.4853 8.21269 20.5614 8.35464 20.6405L8.35848 20.6406L8.36441 20.6407C8.37005 20.6409 8.37473 20.641 8.37966 20.641C8.37902 20.6423 8.3784 20.6436 8.37779 20.6449C8.37681 20.6515 8.38238 20.6637 8.38993 20.6704C8.857 20.9559 9.32576 21.2183 9.80404 21.4636C9.82416 21.4739 9.84664 21.4796 9.86866 21.4781C9.87175 21.484 9.87522 21.49 9.87912 21.4962C10.3519 21.7433 10.8257 21.9659 11.3075 22.1712C11.3284 22.1801 11.3491 22.1894 11.3699 22.1987C11.4526 22.2357 11.5362 22.2731 11.6326 22.2879L11.6326 22.2879C11.6321 22.2921 11.6318 22.2964 11.6316 22.3008C11.9885 22.4555 12.3433 22.5881 12.7007 22.714C12.7196 22.7207 12.7385 22.7273 12.7575 22.734L12.7575 22.734C13.0214 22.8272 13.2852 22.9203 13.5559 22.9854L13.5559 22.9851C13.5588 22.9901 13.562 22.9952 13.5655 23.0005C13.8963 23.1057 14.219 23.1985 14.5438 23.2839C15.0026 23.4045 15.4639 23.5137 15.9296 23.605L15.9478 23.6086L15.948 23.6086C16.2231 23.6626 16.4981 23.7165 16.7755 23.7573C16.8693 23.7711 16.9628 23.7862 17.0563 23.8013L17.0566 23.8014C17.1875 23.8225 17.3183 23.8437 17.4497 23.8612C17.6945 23.8939 17.9402 23.9202 18.1859 23.9456L18.2018 23.9472C18.2154 23.9486 18.229 23.9501 18.2427 23.9515L18.2427 23.9515C18.4598 23.974 18.6771 23.9966 18.8949 24.0102C19.1935 24.029 19.4926 24.0398 19.7917 24.0507L19.8136 24.0515C19.8469 24.0527 19.8803 24.054 19.9136 24.0552L19.9138 24.0552L19.914 24.0552H19.9141H19.9141H19.9141H19.9142H19.9142H19.9142H19.9142H19.9143H19.9143H19.9143H19.9144H19.9144H19.9144H19.9145H19.9145H19.9145C20.1329 24.0634 20.3514 24.0716 20.5697 24.0698C20.9603 24.0665 21.351 24.0575 21.7413 24.0418C21.9278 24.0343 22.114 24.0201 22.3002 24.0058C22.395 23.9986 22.4898 23.9913 22.5846 23.985C22.9892 23.9578 23.3915 23.9076 23.7935 23.8567C24.112 23.8163 24.4295 23.7655 24.7456 23.7088C25.2269 23.6226 25.7062 23.5253 26.1811 23.4089C26.9444 23.2219 27.6981 23.0013 28.4395 22.7398C29.2882 22.4405 30.1184 22.0967 30.9273 21.7021C31.7768 21.2877 32.5993 20.8256 33.3936 20.3126C34.2969 19.7293 35.1574 19.0891 35.9739 18.3896C36.8283 17.6577 37.6258 16.8681 38.3689 16.0235C38.8366 15.4919 39.2782 14.9395 39.6962 14.368C40.2282 13.6407 40.7141 12.8837 41.1555 12.0951C41.1409 12.0847 41.134 12.082 41.1162 12.0786C41.0074 12.0952 40.9481 12.1679 40.8914 12.2372L40.8877 12.2417C40.7524 12.4073 40.5987 12.5543 40.4374 12.7085L40.4331 12.7126C40.4065 12.7746 40.3602 12.8106 40.3151 12.8456C40.293 12.8627 40.2712 12.8796 40.2522 12.8992C39.6637 13.5056 39.0465 14.0824 38.4158 14.6596C38.3903 14.6955 38.3598 14.7215 38.329 14.7479C38.3053 14.7681 38.2815 14.7884 38.2595 14.8135C38.2421 14.8325 38.224 14.8421 38.2044 14.8525L38.2023 14.8537L38.1986 14.8556C38.1964 14.8568 38.1942 14.858 38.192 14.8592C38.1891 14.8608 38.1862 14.8625 38.1833 14.8642L38.1806 14.8658L38.1792 14.8666L38.1777 14.8675L38.1764 14.8684C38.1756 14.8689 38.1748 14.8694 38.174 14.8699C38.0337 14.996 37.8997 15.1134 37.7646 15.2291C36.5726 16.25 35.3272 17.1994 33.9964 18.0346C32.3802 19.049 30.6819 19.8855 28.8445 20.4221C28.4891 20.5259 28.131 20.6195 27.7561 20.6949C27.708 20.7044 27.6619 20.7124 27.6172 20.7201C27.5614 20.7298 27.5076 20.7391 27.4542 20.7506C26.9752 20.853 26.4887 20.9011 25.9913 20.9503L25.9913 20.9503C25.9635 20.953 25.9357 20.9558 25.9079 20.9585C25.7085 20.9775 25.5128 20.9785 25.3165 20.9795H25.3165H25.3164H25.3164H25.3164H25.3164H25.3164H25.3164H25.3163H25.3163H25.3163H25.3163H25.3163H25.3163H25.3162H25.3162H25.3162C25.1658 20.9803 25.0151 20.981 24.8622 20.9899C24.5869 20.9786 24.3223 20.9576 24.0591 20.9367H24.0591H24.0591H24.059L24.0554 20.9364C24.0222 20.9337 23.9891 20.9311 23.9559 20.9285C23.9447 20.9276 23.9335 20.9267 23.9223 20.9259C23.8577 20.9208 23.7936 20.911 23.7288 20.9011C23.6219 20.8848 23.5132 20.8682 23.3975 20.8722C23.2893 20.849 23.1816 20.8267 23.0743 20.8045L23.0742 20.8045C22.707 20.7286 22.3438 20.6535 21.9819 20.5426C21.8602 20.4979 21.7397 20.4557 21.6196 20.4137L21.6195 20.4137L21.6195 20.4136L21.6194 20.4136L21.6194 20.4136L21.6193 20.4136C21.4496 20.3542 21.2807 20.2951 21.1101 20.2293C21.0553 20.1977 20.9997 20.1745 20.944 20.1514L20.944 20.1513C20.8879 20.1279 20.8317 20.1046 20.7766 20.0726C20.4155 19.9062 20.0824 19.7115 19.7529 19.51C19.7481 19.5071 19.7432 19.504 19.7383 19.501L19.738 19.5009C19.6847 19.4678 19.6307 19.4342 19.557 19.4462C19.5485 19.3813 19.5056 19.3505 19.4629 19.3214C19.1177 19.0862 18.7981 18.8188 18.4847 18.5435C18.4799 18.5392 18.4751 18.5348 18.4702 18.5303C18.4375 18.5 18.4021 18.4672 18.3453 18.4823C18.3494 18.4048 18.3039 18.3598 18.2597 18.3173C17.9491 18.018 17.6678 17.6931 17.4038 17.3524C17.357 17.292 17.3064 17.2322 17.2189 17.2156C17.221 17.2119 17.2231 17.208 17.2252 17.2039C17.2404 17.1249 17.2038 17.0714 17.1683 17.0195C17.1653 17.0151 17.1623 17.0107 17.1593 17.0063C16.9617 16.7133 16.7734 16.4148 16.6114 16.1003C16.5883 16.0554 16.5638 16.0103 16.5056 15.9885C16.5058 15.9879 16.506 15.9872 16.5062 15.9866C16.5063 15.986 16.5065 15.9854 16.5066 15.9848C16.509 15.9659 16.5096 15.9583 16.509 15.9391C16.5011 15.8839 16.4815 15.8424 16.4627 15.8024C16.4606 15.798 16.4585 15.7937 16.4565 15.7893C16.2357 15.3152 16.0526 14.827 15.9101 14.3237L15.9099 14.3234L15.9099 14.3234C15.8941 14.2674 15.8782 14.2113 15.8218 14.1664C15.8581 14.1022 15.8434 14.0431 15.8289 13.9846L15.8285 13.9832C15.7725 13.7583 15.7299 13.5308 15.692 13.2898C15.6872 13.2612 15.6827 13.2452 15.6732 13.2177C15.672 13.2134 15.6709 13.2092 15.6698 13.205L15.669 13.2021C15.6685 13.2001 15.668 13.1982 15.6675 13.1963L15.6673 13.1958L15.6673 13.1956C15.6568 13.1553 15.6475 13.1198 15.6134 13.0993C15.627 13.0835 15.6383 13.064 15.6457 13.039C15.6381 12.8329 15.6229 12.635 15.6079 12.4389L15.6079 12.4387L15.6077 12.4366C15.6058 12.4121 15.6039 12.3876 15.6021 12.3632L15.6004 12.341C15.5999 12.3337 15.5993 12.3264 15.5988 12.3191L15.598 12.3095C15.594 12.2558 15.5932 12.2016 15.5923 12.1471V12.147C15.5902 12.0198 15.5881 11.8908 15.5462 11.7606C15.5389 11.7537 15.5317 11.7478 15.5245 11.7428L15.5281 11.7422C15.602 11.6816 15.6086 11.6078 15.606 11.5335C15.6003 11.3755 15.6184 11.2193 15.6372 11.0562V11.0562L15.6373 11.0561C15.6413 11.021 15.6454 10.9856 15.6493 10.9498C15.6564 10.9213 15.6594 10.905 15.6615 10.8762C15.6623 10.8599 15.6627 10.8441 15.6631 10.8286C15.6646 10.7734 15.666 10.7224 15.6801 10.6653C15.6851 10.6379 15.6868 10.622 15.6872 10.594C15.685 10.5429 15.6795 10.5044 15.6472 10.4646C15.6521 10.4642 15.6571 10.4639 15.6622 10.4637C15.7211 10.4158 15.7345 10.3562 15.7478 10.2975C15.7486 10.294 15.7494 10.2906 15.7501 10.2872C15.7618 10.2363 15.7731 10.1854 15.7845 10.1344L15.7847 10.1337L15.7848 10.1329L15.7849 10.1325L15.7849 10.1324C15.829 9.93468 15.8735 9.73553 15.9339 9.53307C15.9395 9.50853 15.9422 9.49476 15.9459 9.47084C15.949 9.45084 15.9524 9.43585 15.9561 9.41932C15.9578 9.4119 15.9595 9.40417 15.9613 9.39554C15.9655 9.37907 15.9684 9.36827 15.9722 9.35436L15.9723 9.35387L15.9723 9.35384L15.9737 9.34864L15.9755 9.34216L15.9755 9.34196C15.9817 9.3215 15.9853 9.30967 15.9907 9.28864C15.9956 9.26694 15.9976 9.25427 15.9985 9.23172C15.9971 9.21578 15.9948 9.20308 15.989 9.19229L15.9909 9.19136C16.0438 9.14933 16.0673 9.10074 16.087 9.04975C16.2683 8.58067 16.4558 8.11454 16.712 7.67947C16.714 7.67601 16.7161 7.67253 16.7182 7.66903C16.7425 7.62846 16.7688 7.58452 16.747 7.53621L16.752 7.53394C16.812 7.49439 16.8452 7.44243 16.8776 7.39153C16.8793 7.38893 16.8809 7.38634 16.8826 7.38376C16.8838 7.38178 16.8851 7.37981 16.8863 7.37785C16.8882 7.37489 16.8902 7.37193 16.8921 7.36899C16.9185 7.32853 16.9447 7.28794 16.9709 7.24736L16.971 7.2473C17.0736 7.08847 17.1762 6.92963 17.2899 6.77837C17.5338 6.45408 17.7819 6.13369 18.0675 5.84358C18.0717 5.83941 18.0758 5.83523 18.08 5.83106C18.0823 5.82884 18.0845 5.82663 18.0868 5.82441C18.0891 5.8221 18.0915 5.81978 18.0938 5.81747L18.0949 5.81648L18.095 5.81634L18.095 5.81634C18.159 5.75358 18.2267 5.68716 18.2308 5.58213L18.2312 5.5825C18.2909 5.58226 18.3272 5.55238 18.3631 5.52282L18.3632 5.52279C18.3693 5.51776 18.3754 5.51275 18.3816 5.50789C18.4681 5.44008 18.5478 5.36472 18.6275 5.28934L18.6275 5.28931L18.6276 5.28927L18.6276 5.28925C18.6808 5.23897 18.7339 5.18867 18.7892 5.1406C19.2716 4.72073 19.7884 4.34843 20.3261 4.00368C20.3329 3.99931 20.3402 3.99506 20.3476 3.99074C20.3945 3.96327 20.4464 3.93285 20.4239 3.84911C20.3678 3.78002 20.2891 3.7553 20.2089 3.74309C20.2058 3.73738 20.2024 3.73149 20.1985 3.72542L20.1685 3.71282C19.9934 3.63926 19.8263 3.56904 19.6567 3.50526L19.6417 3.49962C19.5277 3.45664 19.4131 3.4135 19.2903 3.3999C19.2882 3.39457 19.2857 3.38908 19.2829 3.38344C18.8757 3.25124 18.4703 3.15418 18.0594 3.08096C18.0356 3.07672 18.0118 3.07225 17.988 3.06777L17.988 3.06776C17.8672 3.04508 17.7454 3.0222 17.6152 3.02758L17.6143 3.0284L17.6133 3.02936C17.6128 3.02515 17.6121 3.02084 17.6113 3.01642C17.3066 2.96775 17.0116 2.94428 16.7159 2.9291C16.6325 2.92482 16.5486 2.92832 16.4667 2.9388L16.467 2.93986L16.468 2.94458C16.4641 2.93991 16.46 2.93515 16.4557 2.93029C16.4543 2.92865 16.4528 2.927 16.4513 2.92534C16.1037 2.91099 15.7699 2.91958 15.4362 2.93411C15.3631 2.93729 15.2904 2.95093 15.2097 2.9673C15.2087 2.96809 15.2078 2.96888 15.2069 2.96966C15.2062 2.96584 15.2053 2.96194 15.2043 2.95797C15.1467 2.95841 15.1021 2.9588 15.0579 2.96311C14.6643 3.00144 14.2719 3.04997 13.883 3.12296C13.8483 3.12948 13.8134 3.13562 13.7785 3.14177L13.7785 3.14178C13.6428 3.16566 13.5059 3.18977 13.368 3.23762C13.3675 3.23809 13.367 3.23856 13.3664 3.23903C13.3659 3.23599 13.3652 3.23289 13.3644 3.22972C13.2901 3.24296 13.2273 3.25647 13.1648 3.27102C12.1123 3.5159 11.097 3.87084 10.1096 4.30763C8.85865 4.86107 7.6747 5.53543 6.53833 6.29492C5.27416 7.13982 4.08571 8.08211 2.94873 9.09037C2.92747 9.10923 2.90966 9.13197 2.89307 9.16245Z" fill="#0560FD"/>
<path fill-rule="evenodd" clip-rule="evenodd" d="M41.0593 12.2341L41.0587 12.234C41.0589 12.234 41.0591 12.234 41.0593 12.2341ZM41.0578 12.2338C41.0581 12.2338 41.0584 12.2339 41.0587 12.234C41.0584 12.234 41.0581 12.2341 41.0579 12.2342C41.0577 12.2342 41.0576 12.2343 41.0576 12.2342C41.0576 12.2342 41.0576 12.2341 41.0578 12.2338ZM38.2627 14.9079C38.2671 14.9088 38.2717 14.91 38.2764 14.9114C38.3047 14.8915 38.324 14.876 38.3424 14.8596C38.99 14.2786 39.6183 13.6772 40.2303 13.0588C40.2526 13.0362 40.2721 13.0108 40.2838 12.9828C40.2911 12.9805 40.2985 12.9784 40.306 12.9763C40.3527 12.934 40.3916 12.8966 40.429 12.8579C40.4914 12.7932 40.5538 12.7284 40.6161 12.6636L40.6163 12.6634L40.6165 12.6632L40.6167 12.663L40.6174 12.6623L40.6183 12.6614C40.7388 12.5362 40.8593 12.4109 40.9804 12.2863C40.9856 12.281 40.9904 12.2748 40.9952 12.2685C41.0105 12.2484 41.0264 12.2276 41.0578 12.2338L41.0579 12.2335L41.0581 12.2332C41.0585 12.2325 41.0591 12.2315 41.0601 12.2298C41.0715 12.2155 41.0795 12.2088 41.0877 12.2036C41.0873 12.2046 41.0894 12.2041 41.0947 12.1957C41.1051 12.1835 41.1104 12.1795 41.116 12.1752L41.1163 12.175C41.1166 12.1747 41.1169 12.1737 41.1213 12.1664C41.1233 12.1607 41.1249 12.1554 41.1264 12.1504C41.1312 12.1348 41.1348 12.1227 41.145 12.1137C41.145 12.1137 41.145 12.1137 41.1449 12.1137C41.1449 12.1137 41.1448 12.1137 41.1448 12.1137C41.1451 12.1135 41.1468 12.1123 41.1509 12.1057C41.1599 12.0804 41.1557 12.0669 41.1439 12.0454C41.1299 11.9767 41.0943 11.9297 41.055 11.8779L41.0502 11.8717C41.038 11.8598 41.0317 11.8523 41.0264 11.8453C41.0268 11.8457 41.0273 11.844 41.0197 11.8376C41.0188 11.8368 41.018 11.8359 41.0171 11.835C41.0202 11.8349 41.0233 11.8346 41.0263 11.8342C40.9309 11.6354 40.8243 11.4548 40.6907 11.2835C40.693 11.2799 40.6952 11.2761 40.6973 11.2722C40.6761 11.2373 40.6552 11.2027 40.6345 11.1685L40.6345 11.1684L40.6344 11.1684C40.5557 11.038 40.4796 10.912 40.3992 10.7888C40.2978 10.6333 40.1895 10.4822 40.0747 10.3237C40.0731 10.3227 40.0716 10.3217 40.07 10.3207C40.0734 10.3203 40.0767 10.3199 40.0801 10.3196C40.0708 10.3049 40.0619 10.2906 40.0532 10.2766C40.0197 10.2228 39.9889 10.1733 39.9541 10.1269C39.9205 10.0821 39.8886 10.0361 39.8564 9.98984L39.8564 9.98982L39.8564 9.98975C39.7877 9.89089 39.7182 9.79089 39.6305 9.69902C39.6287 9.69837 39.6268 9.69774 39.625 9.69713C39.6265 9.69665 39.6281 9.69618 39.6297 9.69572C39.6318 9.6951 39.6339 9.69449 39.6361 9.69388L39.631 9.68658C39.5468 9.5646 39.468 9.45038 39.3593 9.34985L39.3584 9.34982C39.3619 9.34649 39.3654 9.34306 39.3689 9.33954C39.2027 9.10181 39.0275 8.88387 38.8478 8.66946C38.8411 8.66147 38.835 8.65279 38.8288 8.64396L38.8288 8.64395L38.8288 8.64393C38.8094 8.61643 38.7889 8.58744 38.7465 8.57275C38.7444 8.57128 38.7422 8.56985 38.7401 8.56847C38.7389 8.56768 38.7377 8.56691 38.7365 8.56615C38.742 8.56609 38.7476 8.56611 38.7531 8.56623C38.5672 8.32371 38.3733 8.10123 38.1744 7.88322C38.1611 7.86865 38.1484 7.85347 38.1355 7.83814L38.1355 7.83809C38.0976 7.79282 38.0586 7.7463 38.0007 7.71071C37.9992 7.70977 37.9977 7.70885 37.9962 7.70797L38.0012 7.70678L38.0058 7.70568C37.8547 7.53867 37.7099 7.37965 37.5619 7.2237C37.5464 7.20734 37.5311 7.19073 37.5158 7.17409L37.5158 7.17406C37.449 7.10147 37.3817 7.02838 37.2924 6.97392C37.2935 6.96917 37.2945 6.96425 37.2953 6.95916C37.1227 6.77374 36.942 6.60433 36.7623 6.43591L36.7623 6.43587C36.6947 6.37249 36.6272 6.30924 36.5604 6.24533C36.53 6.2163 36.4947 6.19248 36.4566 6.17498C36.4556 6.1686 36.4543 6.16199 36.4527 6.15513C36.2177 5.94458 35.9885 5.74144 35.7571 5.54083C35.7443 5.52972 35.7316 5.51848 35.7188 5.50721L35.7188 5.50719C35.6514 5.44752 35.5832 5.38719 35.4958 5.34326C35.4965 5.33929 35.497 5.33517 35.4974 5.33087C35.2126 5.09074 34.9253 4.86878 34.6342 4.65153C34.6202 4.64103 34.6031 4.63454 34.5853 4.63477C34.5846 4.63277 34.5838 4.63074 34.583 4.62868C34.5822 4.62654 34.5813 4.62437 34.5803 4.62218C34.5795 4.62019 34.5786 4.61819 34.5777 4.61616C34.1283 4.2772 33.6701 3.967 33.2046 3.66767C33.0759 3.58498 32.9431 3.50893 32.8011 3.42979L32.7973 3.42971L32.7913 3.42958C32.7857 3.42945 32.781 3.42935 32.7761 3.42929C32.7767 3.42802 32.7774 3.42674 32.778 3.42544C32.779 3.41879 32.7734 3.40657 32.7658 3.39994C32.2988 3.11442 31.83 2.85203 31.3517 2.6067C31.3316 2.59638 31.3091 2.59067 31.2871 2.5922C31.284 2.58635 31.2805 2.58032 31.2766 2.57411C30.8039 2.32701 30.3301 2.10438 29.8482 1.89908C29.8274 1.89019 29.8066 1.88091 29.7859 1.87162C29.7031 1.83458 29.6196 1.79719 29.5232 1.78241L29.5232 1.78242C29.5236 1.77822 29.524 1.7739 29.5241 1.76946C29.1672 1.61478 28.8124 1.48223 28.455 1.35632C28.4361 1.34966 28.4172 1.34298 28.3983 1.33631L28.3983 1.33629C28.1343 1.24315 27.8706 1.15006 27.5999 1.08489L27.5999 1.08519C27.597 1.0802 27.5938 1.07508 27.5903 1.06983C27.2595 0.964596 26.9368 0.871767 26.6119 0.786377C26.1531 0.665787 25.6918 0.556572 25.2262 0.465296L25.2079 0.461712L25.2078 0.461679C24.9326 0.407747 24.6577 0.353848 24.3802 0.313C24.2865 0.299202 24.193 0.284082 24.0994 0.268963L24.0992 0.268919C23.9683 0.247763 23.8374 0.22661 23.7061 0.209076C23.4613 0.176392 23.2155 0.150146 22.9698 0.12472L22.954 0.123077C22.9404 0.121668 22.9267 0.120253 22.9131 0.118835L22.9131 0.118832C22.6959 0.0962944 22.4786 0.0737438 22.2608 0.0600815C21.9623 0.0413532 21.6631 0.0304813 21.3641 0.0196114L21.3422 0.0188122C21.3088 0.0175972 21.2755 0.0163479 21.2421 0.0150967L21.2419 0.0150909L21.2417 0.0150852H21.2417H21.2417H21.2416H21.2416H21.2416H21.2415H21.2415H21.2415H21.2414H21.2414H21.2414H21.2414H21.2413H21.2413H21.2413H21.2412C21.0229 0.00690079 20.8044 -0.00128937 20.586 0.000528336C20.1954 0.00377464 19.8048 0.0128021 19.4145 0.0284901C19.228 0.0359879 19.0418 0.0502319 18.8556 0.0644779C18.7608 0.0717297 18.666 0.0789833 18.5711 0.0853443C18.1665 0.112488 17.7642 0.162664 17.3623 0.213608C17.0437 0.253975 16.7262 0.304844 16.4102 0.361467C15.9289 0.44768 15.4496 0.545025 14.9746 0.661379C14.2113 0.848389 13.4577 1.06904 12.7163 1.3305C11.8676 1.6298 11.0374 1.97361 10.2285 2.36823C9.379 2.78266 8.55643 3.24471 7.76218 3.75766C6.85889 4.34103 5.99835 4.98125 5.18185 5.68073C4.32748 6.41265 3.52992 7.20217 2.78683 8.04684C2.31917 8.57844 1.87753 9.1308 1.45953 9.70227C0.927551 10.4296 0.441647 11.1866 0.000244141 11.9752C0.014904 11.9857 0.0217628 11.9883 0.039608 11.9917C0.148361 11.9751 0.207699 11.9025 0.264381 11.8331L0.268044 11.8286C0.403408 11.663 0.55706 11.5161 0.71833 11.3618L0.722656 11.3577C0.749218 11.2957 0.795578 11.2597 0.840698 11.2247C0.862759 11.2076 0.884525 11.1907 0.903534 11.1711C1.49211 10.5647 2.10921 9.98792 2.73991 9.4107C2.76545 9.37484 2.79597 9.34878 2.82681 9.32245C2.85047 9.30224 2.87431 9.28188 2.89622 9.25682C2.91365 9.23783 2.93172 9.22822 2.95132 9.21779L2.95347 9.21665L2.95712 9.2147C2.95931 9.21353 2.96152 9.21233 2.96375 9.2111C2.96663 9.20951 2.96955 9.20785 2.97251 9.20611L2.97514 9.20455L2.97653 9.2037L2.97802 9.20279L2.97939 9.20193C2.98018 9.20144 2.98096 9.20094 2.98175 9.20042C3.12207 9.07431 3.25605 8.95693 3.39112 8.84126C4.58318 7.82029 5.82859 6.87091 7.15932 6.03572C8.7756 5.0213 10.4739 4.18485 12.3113 3.64818C12.6667 3.54436 13.0248 3.45082 13.3996 3.37538C13.4478 3.36591 13.4938 3.35792 13.5386 3.35016C13.5944 3.34049 13.6482 3.33117 13.7016 3.31973C14.1806 3.21729 14.6671 3.1692 15.1645 3.12004L15.1645 3.12003C15.1923 3.11729 15.2201 3.11454 15.2479 3.11178C15.4472 3.09278 15.643 3.09179 15.8393 3.09079H15.8393H15.8393H15.8393H15.8394H15.8394H15.8394H15.8394H15.8394H15.8394H15.8395H15.8395H15.8395H15.8395H15.8395H15.8395H15.8396C15.9899 3.09003 16.1406 3.08926 16.2936 3.08043C16.5688 3.09176 16.8334 3.11276 17.0967 3.13364H17.0967H17.0967H17.0967L17.1003 3.13393C17.1335 3.13657 17.1667 3.1392 17.1999 3.14181C17.2111 3.14269 17.2223 3.14357 17.2335 3.14444C17.2981 3.14949 17.3622 3.15929 17.4269 3.16918C17.5339 3.18552 17.6425 3.20212 17.7583 3.19806C17.8664 3.22132 17.9741 3.24359 18.0815 3.26579L18.0815 3.2658C18.4488 3.34174 18.8119 3.41684 19.1739 3.52769C19.2955 3.57242 19.416 3.61459 19.5362 3.65663L19.5362 3.65665L19.5363 3.65667L19.5364 3.65669L19.5364 3.65671L19.5365 3.65673C19.7061 3.7161 19.8751 3.77523 20.0457 3.84099C20.1004 3.87257 20.1561 3.89577 20.2117 3.91896L20.2118 3.91897C20.2679 3.94237 20.324 3.96576 20.3791 3.99773C20.7403 4.16406 21.0734 4.3588 21.4028 4.56026C21.4077 4.56324 21.4126 4.56626 21.4174 4.56929L21.4177 4.56946C21.471 4.60256 21.525 4.6361 21.5988 4.62409C21.6072 4.68896 21.6501 4.7198 21.6929 4.74891C22.0381 4.98416 22.3576 5.2515 22.671 5.52682C22.6759 5.53107 22.6807 5.53554 22.6856 5.54006C22.7183 5.57033 22.7537 5.60311 22.8104 5.58804C22.8064 5.66552 22.8518 5.71047 22.896 5.75305C23.2067 6.05231 23.488 6.37724 23.752 6.71791C23.7987 6.7783 23.8493 6.83813 23.9369 6.85473C23.9347 6.85842 23.9326 6.86232 23.9306 6.86645C23.9153 6.94539 23.9519 6.99888 23.9875 7.05079C23.9905 7.0552 23.9935 7.0596 23.9964 7.064C24.1941 7.357 24.3823 7.65552 24.5444 7.97004C24.5675 8.01489 24.592 8.05997 24.6501 8.08182C24.65 8.08246 24.6498 8.0831 24.6496 8.08375C24.6494 8.08433 24.6493 8.08492 24.6491 8.08551C24.6467 8.10441 24.6461 8.11205 24.6468 8.13125C24.6547 8.18638 24.6742 8.22789 24.6931 8.26792C24.6952 8.27229 24.6972 8.27665 24.6992 8.281C24.9201 8.75516 25.1032 9.24328 25.2457 9.74658L25.2458 9.74694L25.2458 9.74696C25.2617 9.80286 25.2775 9.85899 25.3339 9.90387C25.2976 9.96809 25.3123 10.0272 25.3269 10.0857L25.3273 10.0872C25.3832 10.312 25.4259 10.5395 25.4638 10.7805C25.4686 10.8091 25.4731 10.8251 25.4826 10.8526C25.4838 10.8569 25.4849 10.8611 25.486 10.8653L25.4868 10.8683C25.4873 10.8702 25.4878 10.8721 25.4883 10.8741L25.4884 10.8745L25.4885 10.8747C25.499 10.915 25.5082 10.9505 25.5423 10.971C25.5287 10.9868 25.5175 11.0063 25.51 11.0313C25.5177 11.2374 25.5329 11.4353 25.5479 11.6314L25.5479 11.6316L25.5481 11.6337C25.5499 11.6582 25.5518 11.6827 25.5537 11.7072L25.5554 11.7293C25.5559 11.7366 25.5565 11.7439 25.557 11.7512L25.5577 11.7608C25.5617 11.8145 25.5626 11.8687 25.5635 11.9232V11.9233C25.5655 12.0505 25.5676 12.1796 25.6096 12.3097C25.6169 12.3166 25.6241 12.3225 25.6312 12.3275L25.6277 12.3281C25.5537 12.3887 25.5471 12.4625 25.5498 12.5369C25.5555 12.6949 25.5374 12.851 25.5185 13.0141V13.0141L25.5185 13.0142C25.5144 13.0493 25.5103 13.0847 25.5064 13.1205C25.4994 13.149 25.4964 13.1653 25.4942 13.1941C25.4935 13.2104 25.4931 13.2262 25.4927 13.2417C25.4912 13.2969 25.4898 13.3479 25.4757 13.4051C25.4706 13.4324 25.469 13.4483 25.4685 13.4764C25.4707 13.5274 25.4763 13.5659 25.5086 13.6057C25.5036 13.6061 25.4986 13.6064 25.4935 13.6067C25.4347 13.6545 25.4212 13.7141 25.408 13.7728C25.4072 13.7763 25.4064 13.7797 25.4056 13.7832C25.394 13.834 25.3827 13.8849 25.3713 13.9359L25.3711 13.9367L25.3709 13.9374L25.3709 13.9378L25.3708 13.9379C25.3267 14.1356 25.2823 14.3348 25.2219 14.5372C25.2163 14.5618 25.2135 14.5756 25.2099 14.5995C25.2068 14.6195 25.2034 14.6345 25.1997 14.651C25.198 14.6584 25.1962 14.6661 25.1944 14.6748C25.1903 14.6912 25.1874 14.702 25.1836 14.716L25.1835 14.7164L25.1835 14.7165L25.182 14.7217L25.1803 14.7281L25.1802 14.7284C25.174 14.7488 25.1704 14.7606 25.1651 14.7817C25.1601 14.8034 25.1582 14.816 25.1573 14.8386C25.1586 14.8545 25.1609 14.8672 25.1668 14.878L25.1648 14.879C25.112 14.921 25.0884 14.9696 25.0687 15.0206C24.8875 15.4896 24.7 15.9558 24.4438 16.3908C24.4418 16.3943 24.4397 16.3978 24.4376 16.4013C24.4133 16.4419 24.387 16.4858 24.4088 16.5341L24.4038 16.5364C24.3437 16.5759 24.3106 16.6279 24.2782 16.6788C24.2765 16.6814 24.2749 16.684 24.2732 16.6866C24.2719 16.6885 24.2707 16.6905 24.2694 16.6925C24.2675 16.6954 24.2656 16.6984 24.2637 16.7013C24.2373 16.7418 24.2111 16.7824 24.1848 16.823L24.1848 16.823C24.0822 16.9818 23.9796 17.1407 23.8658 17.2919C23.622 17.6162 23.3739 17.9366 23.0882 18.2267C23.0841 18.2309 23.0799 18.2351 23.0757 18.2393C23.0735 18.2415 23.0712 18.2437 23.069 18.2459C23.0666 18.2482 23.0643 18.2505 23.0619 18.2528L23.0609 18.2538L23.0608 18.254L23.0608 18.254C22.9968 18.3167 22.9291 18.3831 22.925 18.4882L22.9245 18.4878C22.8649 18.488 22.8286 18.5179 22.7926 18.5475L22.7926 18.5475C22.7865 18.5526 22.7804 18.5576 22.7742 18.5624C22.6876 18.6302 22.608 18.7056 22.5283 18.781L22.5282 18.781L22.5282 18.781L22.5282 18.7811C22.475 18.8313 22.4218 18.8816 22.3666 18.9297C21.8842 19.3496 21.3674 19.7219 20.8296 20.0666C20.8228 20.071 20.8156 20.0753 20.8082 20.0796C20.7613 20.107 20.7094 20.1375 20.7318 20.2212C20.788 20.2903 20.8667 20.315 20.9469 20.3272C20.9499 20.3329 20.9534 20.3388 20.9573 20.3449L20.9873 20.3575C21.1624 20.4311 21.3295 20.5013 21.499 20.5651L21.514 20.5707C21.6281 20.6137 21.7426 20.6568 21.8654 20.6704C21.8676 20.6757 21.8701 20.6812 21.8728 20.6869C22.2801 20.8191 22.6855 20.9161 23.0963 20.9894C23.1201 20.9936 23.1439 20.9981 23.1678 21.0025L23.1678 21.0026C23.2885 21.0252 23.4103 21.0481 23.5406 21.0427L23.5415 21.0419L23.5424 21.041C23.5429 21.0452 23.5436 21.0495 23.5445 21.0539C23.8492 21.1026 24.1442 21.126 24.4398 21.1412C24.5233 21.1455 24.6071 21.142 24.689 21.1315L24.6888 21.1305L24.6877 21.1257C24.6916 21.1304 24.6957 21.1352 24.7001 21.14C24.7015 21.1417 24.703 21.1433 24.7045 21.145C25.0521 21.1593 25.3859 21.1507 25.7195 21.1362C25.7927 21.133 25.8654 21.1194 25.9461 21.103C25.947 21.1022 25.948 21.1014 25.9489 21.1007C25.9496 21.1045 25.9504 21.1084 25.9514 21.1123C26.009 21.1119 26.0536 21.1115 26.0979 21.1072C26.4915 21.0689 26.8838 21.0203 27.2727 20.9474C27.3075 20.9408 27.3423 20.9347 27.3773 20.9285L27.3773 20.9285C27.5129 20.9047 27.6498 20.8805 27.7877 20.8327C27.7883 20.8322 27.7888 20.8318 27.7893 20.8313C27.7899 20.8343 27.7905 20.8374 27.7913 20.8406C27.8657 20.8274 27.9284 20.8138 27.991 20.7993C29.0435 20.5544 30.0588 20.1995 31.0461 19.7627C32.2971 19.2092 33.4811 18.5349 34.6174 17.7754C35.8816 16.9305 37.0701 15.9882 38.207 14.9799C38.2283 14.9611 38.2461 14.9383 38.2627 14.9079Z" fill="#72A6FF"/>
<path d="M59.692 8.272H55.534V19H53.374V8.272H49.234V6.238H59.692V8.272ZM65.2007 10.18V12.304C64.9667 12.268 64.7327 12.25 64.5167 12.25C62.8967 12.25 62.1587 13.186 62.1587 14.824V19H60.0707V10.234H62.1047V11.638C62.5187 10.684 63.4907 10.126 64.6427 10.126C64.8947 10.126 65.1107 10.162 65.2007 10.18ZM66.4213 16.624C66.4213 15.058 67.5733 14.194 69.0673 13.978L71.3173 13.636C71.8213 13.564 71.9653 13.312 71.9653 13.006C71.9653 12.268 71.4613 11.674 70.3093 11.674C69.2113 11.674 68.5993 12.376 68.5093 13.258L66.6013 12.826C66.7633 11.314 68.1313 9.964 70.2913 9.964C72.9913 9.964 74.0173 11.494 74.0173 13.24V17.596C74.0173 18.388 74.1073 18.91 74.1253 19H72.1813C72.1633 18.946 72.0913 18.586 72.0913 17.884C71.6773 18.55 70.8133 19.27 69.3913 19.27C67.5553 19.27 66.4213 18.01 66.4213 16.624ZM69.7873 17.632C70.9573 17.632 71.9653 17.074 71.9653 15.364V14.968L69.6793 15.31C69.0313 15.418 68.5093 15.778 68.5093 16.498C68.5093 17.092 68.9593 17.632 69.7873 17.632ZM77.9278 14.59C77.9278 16.264 78.8638 17.38 80.2858 17.38C81.6538 17.38 82.6078 16.246 82.6078 14.572C82.6078 12.898 81.6718 11.854 80.3038 11.854C78.9358 11.854 77.9278 12.916 77.9278 14.59ZM84.6238 5.968V17.398C84.6238 18.19 84.6958 18.856 84.7138 19H82.7158C82.6798 18.802 82.6258 18.226 82.6258 17.866C82.2118 18.604 81.2938 19.216 80.0518 19.216C77.5318 19.216 75.8398 17.236 75.8398 14.59C75.8398 12.07 77.5498 10 80.0158 10C81.5458 10 82.3198 10.702 82.5898 11.26V5.968H84.6238ZM88.81 13.654H93.112C93.076 12.628 92.392 11.71 90.952 11.71C89.638 11.71 88.882 12.718 88.81 13.654ZM93.346 15.94L95.11 16.498C94.642 18.028 93.256 19.27 91.15 19.27C88.774 19.27 86.668 17.542 86.668 14.572C86.668 11.8 88.72 9.964 90.934 9.964C93.634 9.964 95.218 11.746 95.218 14.518C95.218 14.86 95.182 15.148 95.164 15.184H88.756C88.81 16.516 89.854 17.47 91.15 17.47C92.41 17.47 93.058 16.804 93.346 15.94ZM104.958 10.234L101.52 19H99.4315L95.8675 10.234H98.1715L100.494 16.498L102.762 10.234H104.958ZM108.565 19H106.495V10.234H108.565V19ZM106.171 7.156C106.171 6.4 106.783 5.788 107.521 5.788C108.277 5.788 108.889 6.4 108.889 7.156C108.889 7.912 108.277 8.506 107.521 8.506C106.783 8.506 106.171 7.912 106.171 7.156ZM110.484 16.624L112.302 16.12C112.374 16.912 112.968 17.614 114.084 17.614C114.948 17.614 115.398 17.146 115.398 16.606C115.398 16.138 115.074 15.778 114.372 15.634L113.076 15.346C111.528 15.004 110.718 13.996 110.718 12.79C110.718 11.26 112.122 9.964 113.94 9.964C116.388 9.964 117.18 11.548 117.324 12.412L115.56 12.916C115.488 12.412 115.11 11.602 113.94 11.602C113.202 11.602 112.68 12.07 112.68 12.61C112.68 13.078 113.022 13.42 113.562 13.528L114.894 13.798C116.55 14.158 117.414 15.166 117.414 16.462C117.414 17.794 116.334 19.27 114.102 19.27C111.564 19.27 110.592 17.614 110.484 16.624ZM121.555 19H119.485V10.234H121.555V19ZM119.161 7.156C119.161 6.4 119.773 5.788 120.511 5.788C121.267 5.788 121.879 6.4 121.879 7.156C121.879 7.912 121.267 8.506 120.511 8.506C119.773 8.506 119.161 7.912 119.161 7.156ZM128.1 17.398C129.396 17.398 130.548 16.444 130.548 14.608C130.548 12.79 129.396 11.854 128.1 11.854C126.822 11.854 125.652 12.79 125.652 14.608C125.652 16.426 126.822 17.398 128.1 17.398ZM128.1 9.964C130.728 9.964 132.654 11.926 132.654 14.608C132.654 17.308 130.728 19.27 128.1 19.27C125.49 19.27 123.564 17.308 123.564 14.608C123.564 11.926 125.49 9.964 128.1 9.964ZM136.76 13.942V19H134.672V10.234H136.706V11.404C137.282 10.396 138.326 9.982 139.298 9.982C141.44 9.982 142.466 11.53 142.466 13.456V19H140.378V13.816C140.378 12.736 139.892 11.872 138.578 11.872C137.39 11.872 136.76 12.79 136.76 13.942Z" fill="#676D7C"/>
</svg>
