<svg width="22" height="22" viewBox="0 0 22 22" fill="none" xmlns="http://www.w3.org/2000/svg">
<path d="M2.31918 13.1947C2.12425 14.435 2.99575 15.2958 4.06279 15.7248C8.15366 17.3697 13.8465 17.3697 17.9373 15.7248C19.0044 15.2958 19.8759 14.435 19.681 13.1947C19.5612 12.4325 18.9688 11.7978 18.5299 11.178C17.9551 10.3562 17.898 9.45989 17.8979 8.50629C17.8979 4.821 14.8097 1.8335 11.0001 1.8335C7.19053 1.8335 4.10228 4.821 4.10228 8.50629C4.10219 9.45989 4.04508 10.3562 3.47022 11.178C3.03135 11.7978 2.43898 12.4325 2.31918 13.1947Z" stroke="#676D7C" stroke-width="1.5" stroke-linecap="round" stroke-linejoin="round"/>
<path opacity="0.4" d="M8.25 19.25C8.97979 19.8201 9.94354 20.1667 11 20.1667C12.0565 20.1667 13.0202 19.8201 13.75 19.25" stroke="#676D7C" stroke-width="1.5" stroke-linecap="round" stroke-linejoin="round"/>
</svg>
