<svg width="22" height="22" viewBox="0 0 22 22" fill="none" xmlns="http://www.w3.org/2000/svg">
<g clip-path="url(#clip0_33_24)">
<path d="M10.0833 20.1665C9.33324 20.1665 8.61676 19.8638 7.18377 19.2585C3.61676 17.7517 1.83325 16.9983 1.83325 15.731C1.83325 15.3762 1.83325 9.22563 1.83325 6.4165M10.0833 20.1665V10.4084M10.0833 20.1665C10.7477 20.1665 11.2685 19.929 12.3749 19.4539M18.3333 6.4165V10.0832" stroke="#676D7C" stroke-width="1.5" stroke-linecap="round" stroke-linejoin="round"/>
<path d="M6.71535 8.88344L4.03758 7.5877C2.56802 6.8766 1.83325 6.52105 1.83325 5.95801C1.83325 5.39496 2.56802 5.03942 4.03758 4.32831L6.71535 3.03258C8.36801 2.23287 9.19436 1.83301 10.0833 1.83301C10.9721 1.83301 11.7985 2.23286 13.4512 3.03258L16.1289 4.32831C17.5985 5.03942 18.3333 5.39496 18.3333 5.95801C18.3333 6.52105 17.5985 6.8766 16.1289 7.5877L13.4512 8.88344C11.7985 9.68316 10.9721 10.083 10.0833 10.083C9.19436 10.083 8.36801 9.68316 6.71535 8.88344Z" stroke="#676D7C" stroke-width="1.5" stroke-linecap="round" stroke-linejoin="round"/>
<path opacity="0.4" d="M4.58325 11L6.41659 11.9167" stroke="#676D7C" stroke-width="1.5" stroke-linecap="round" stroke-linejoin="round"/>
<path d="M14.6667 3.6665L5.5 8.24984" stroke="#676D7C" stroke-width="1.5" stroke-linecap="round" stroke-linejoin="round"/>
<path opacity="0.4" d="M20.2449 15.2768L17.4593 18.0624L18.3525 18.9556L21.1381 16.17L20.2449 15.2768ZM15.9376 16.5407L18.7232 13.7551L17.83 12.8619L15.0444 15.6475L15.9376 16.5407ZM15.6344 18.6294C15.4867 18.6609 15.3686 18.6861 15.2671 18.705C15.1648 18.724 15.0977 18.733 15.0522 18.7359C15.0055 18.7389 15.0087 18.7333 15.0378 18.7409C15.0775 18.7511 15.1314 18.7766 15.1774 18.8226L14.2842 19.7158C14.5568 19.9884 14.8975 20.0115 15.1324 19.9965C15.356 19.9823 15.6285 19.9223 15.8985 19.8646L15.6344 18.6294ZM14.1354 18.1015C14.0777 18.3715 14.0177 18.644 14.0035 18.8676C13.9885 19.1025 14.0116 19.4432 14.2842 19.7158L15.1774 18.8226C15.2234 18.8686 15.2489 18.9225 15.2592 18.9621C15.2666 18.9913 15.2611 18.9945 15.2641 18.9478C15.267 18.9023 15.276 18.8352 15.295 18.7328C15.3139 18.6314 15.3391 18.5134 15.3706 18.3656L14.1354 18.1015ZM20.2449 13.7551C20.5543 14.0646 20.6176 14.1356 20.6498 14.1914L21.7438 13.5598C21.6075 13.3237 21.3901 13.1139 21.1381 12.8619L20.2449 13.7551ZM21.1381 16.17C21.3901 15.918 21.6075 15.7083 21.7438 15.4721L20.6498 14.8405C20.6176 14.8964 20.5543 14.9673 20.2449 15.2768L21.1381 16.17ZM20.6498 14.1914C20.7658 14.3922 20.7658 14.6397 20.6498 14.8405L21.7438 15.4721C22.0854 14.8804 22.0854 14.1515 21.7438 13.5598L20.6498 14.1914ZM21.1381 12.8619C20.8861 12.61 20.6764 12.3926 20.4402 12.2562L19.8086 13.3501C19.8644 13.3824 19.9354 13.4457 20.2449 13.7551L21.1381 12.8619ZM18.7232 13.7551C19.0327 13.4457 19.1036 13.3824 19.1595 13.3501L18.5279 12.2562C18.2918 12.3926 18.082 12.61 17.83 12.8619L18.7232 13.7551ZM20.4402 12.2562C19.8485 11.9146 19.1196 11.9146 18.5279 12.2562L19.1595 13.3501C19.3603 13.2342 19.6077 13.2342 19.8086 13.3501L20.4402 12.2562ZM17.4593 18.0624C17.2946 18.227 17.0696 18.3335 16.7499 18.4151C16.5897 18.456 16.4188 18.4876 16.2284 18.5205C16.0454 18.5521 15.836 18.5863 15.6344 18.6294L15.8985 19.8646C16.0684 19.8283 16.2426 19.8 16.4435 19.7653C16.6369 19.7318 16.8502 19.6932 17.0624 19.639C17.4875 19.5305 17.9606 19.3474 18.3525 18.9556L17.4593 18.0624ZM15.3706 18.3656C15.4138 18.164 15.4479 17.9545 15.4794 17.7716C15.5124 17.5812 15.544 17.4103 15.5849 17.2501C15.6665 16.9304 15.773 16.7054 15.9376 16.5407L15.0444 15.6475C14.6526 16.0394 14.4695 16.5126 14.361 16.9376C14.3068 17.1499 14.2682 17.3631 14.2347 17.5565C14.2 17.7574 14.1717 17.9315 14.1354 18.1015L15.3706 18.3656Z" fill="#676D7C"/>
</g>
<defs>
<clipPath id="clip0_33_24">
<rect width="22" height="22" fill="white"/>
</clipPath>
</defs>
</svg>
