<svg width="22" height="22" viewBox="0 0 22 22" fill="none" xmlns="http://www.w3.org/2000/svg">
<path d="M10 10.5L18 6.5L18.5 11.5V15.5L12 19.5L10 20.5L6 19L2 16.5V6.5L10 10.5Z" fill="#FD6D05" fill-opacity="0.2"/>
<path d="M10.0833 20.167C9.33324 20.167 8.61676 19.8643 7.18377 19.259C3.61676 17.7522 1.83325 16.9988 1.83325 15.7315C1.83325 15.3767 1.83325 9.22612 1.83325 6.41699M10.0833 20.167V10.4089M10.0833 20.167C10.6486 20.167 11.1099 19.995 11.9166 19.6511M18.3333 6.41699V11.0003" stroke="#FD6D05" stroke-width="1.375" stroke-linecap="round" stroke-linejoin="round"/>
<path d="M14.6667 13.75L17.4167 16.5M17.4167 16.5L20.1667 19.25M17.4167 16.5L14.6667 19.25M17.4167 16.5L20.1667 13.75" stroke="#FD6D05" stroke-width="1.375" stroke-linecap="round"/>
<path d="M6.71535 8.88344L4.03758 7.5877C2.56802 6.8766 1.83325 6.52105 1.83325 5.95801C1.83325 5.39496 2.56802 5.03942 4.03758 4.32831L6.71535 3.03258C8.36801 2.23287 9.19436 1.83301 10.0833 1.83301C10.9721 1.83301 11.7985 2.23286 13.4512 3.03258L16.1289 4.32831C17.5985 5.03942 18.3333 5.39496 18.3333 5.95801C18.3333 6.52105 17.5985 6.8766 16.1289 7.5877L13.4512 8.88344C11.7985 9.68316 10.9721 10.083 10.0833 10.083C9.19436 10.083 8.36801 9.68316 6.71535 8.88344Z" fill="white" stroke="#FD6D05" stroke-width="1.375" stroke-linecap="round" stroke-linejoin="round"/>
<path d="M4.58325 11L6.41659 11.9167" stroke="#FD6D05" stroke-width="1.375" stroke-linecap="round" stroke-linejoin="round"/>
<path d="M14.6667 3.66699L5.5 8.25033" stroke="#FD6D05" stroke-width="1.375" stroke-linecap="round" stroke-linejoin="round"/>
</svg>
