<svg width="22" height="22" viewBox="0 0 22 22" fill="none" xmlns="http://www.w3.org/2000/svg">
<path d="M10.0833 20.167C9.33324 20.167 8.61676 19.8643 7.18377 19.259C3.61676 17.7522 1.83325 16.9988 1.83325 15.7315C1.83325 15.3767 1.83325 9.22612 1.83325 6.41699M10.0833 20.167V10.4089M10.0833 20.167C10.7477 20.167 11.2685 19.9295 12.3749 19.4544M18.3333 6.41699V10.0837" stroke="#676D7C" stroke-width="1.5" stroke-linecap="round" stroke-linejoin="round"/>
<path opacity="0.4" d="M13.75 16.0413H20.1667M16.9583 19.2497V12.833" stroke="#676D7C" stroke-width="1.5" stroke-linecap="round"/>
<path d="M6.71535 8.88344L4.03758 7.5877C2.56802 6.8766 1.83325 6.52105 1.83325 5.95801C1.83325 5.39496 2.56802 5.03942 4.03758 4.32831L6.71535 3.03258C8.36801 2.23287 9.19436 1.83301 10.0833 1.83301C10.9721 1.83301 11.7985 2.23286 13.4512 3.03258L16.1289 4.32831C17.5985 5.03942 18.3333 5.39496 18.3333 5.95801C18.3333 6.52105 17.5985 6.8766 16.1289 7.5877L13.4512 8.88344C11.7985 9.68316 10.9721 10.083 10.0833 10.083C9.19436 10.083 8.36801 9.68316 6.71535 8.88344Z" stroke="#676D7C" stroke-width="1.5" stroke-linecap="round" stroke-linejoin="round"/>
<path opacity="0.4" d="M4.58325 11L6.41659 11.9167" stroke="#676D7C" stroke-width="1.5" stroke-linecap="round" stroke-linejoin="round"/>
<path d="M14.6667 3.66699L5.5 8.25033" stroke="#676D7C" stroke-width="1.5" stroke-linecap="round" stroke-linejoin="round"/>
</svg>
