<svg width="40" height="40" viewBox="0 0 40 40" fill="none" xmlns="http://www.w3.org/2000/svg">
<circle opacity="0.1" cx="20" cy="20" r="20" fill="#0560FD"/>
<path d="M19.0833 29.1665C18.3332 29.1665 17.6168 28.8638 16.1838 28.2585C12.6168 26.7517 10.8333 25.9983 10.8333 24.731C10.8333 24.3762 10.8333 18.2256 10.8333 15.4165M19.0833 29.1665V19.4084M19.0833 29.1665C19.3953 29.1665 19.6757 29.1141 19.9999 29.0093M27.3333 15.4165V19.5415" stroke="#0560FD" stroke-width="1.5" stroke-linecap="round" stroke-linejoin="round"/>
<path opacity="0.4" d="M25.4999 25.5006L26.3301 24.6705M29.1666 25.5002C29.1666 23.4752 27.5249 21.8335 25.4999 21.8335C23.4749 21.8335 21.8333 23.4752 21.8333 25.5002C21.8333 27.5252 23.4749 29.1668 25.4999 29.1668C27.5249 29.1668 29.1666 27.5252 29.1666 25.5002Z" stroke="#0560FD" stroke-width="1.5" stroke-linecap="round" stroke-linejoin="round"/>
<path d="M15.7153 17.8839L13.0376 16.5882C11.568 15.8771 10.8333 15.5215 10.8333 14.9585C10.8333 14.3955 11.568 14.0399 13.0376 13.3288L15.7153 12.0331C17.368 11.2334 18.1944 10.8335 19.0833 10.8335C19.9721 10.8335 20.7985 11.2333 22.4512 12.0331L25.1289 13.3288C26.5985 14.0399 27.3333 14.3955 27.3333 14.9585C27.3333 15.5215 26.5985 15.8771 25.1289 16.5882L22.4512 17.8839C20.7985 18.6836 19.9721 19.0835 19.0833 19.0835C18.1944 19.0835 17.368 18.6836 15.7153 17.8839Z" stroke="#0560FD" stroke-width="1.5" stroke-linecap="round" stroke-linejoin="round"/>
<path opacity="0.4" d="M13.5833 20L15.4166 20.9167" stroke="#0560FD" stroke-width="1.5" stroke-linecap="round" stroke-linejoin="round"/>
<path d="M23.6667 12.6665L14.5 17.2498" stroke="#0560FD" stroke-width="1.5" stroke-linecap="round" stroke-linejoin="round"/>
</svg>
