<svg width="22" height="22" viewBox="0 0 22 22" fill="none" xmlns="http://www.w3.org/2000/svg">
<path d="M11 16.5V20.1667" stroke="#676D7C" stroke-width="1.5" stroke-linecap="round" stroke-linejoin="round"/>
<path d="M9.16659 16.5L4.58325 20.1667" stroke="#676D7C" stroke-width="1.5" stroke-linecap="round" stroke-linejoin="round"/>
<path d="M12.8333 16.5L17.4166 20.1667" stroke="#676D7C" stroke-width="1.5" stroke-linecap="round" stroke-linejoin="round"/>
<path d="M2.29175 11.0002C2.29175 13.5929 2.29175 14.8892 3.0972 15.6947C3.90266 16.5002 5.19902 16.5002 7.79175 16.5002H14.2084C16.8011 16.5002 18.0975 16.5002 18.9029 15.6947C19.7084 14.8892 19.7084 13.5929 19.7084 11.0002V7.3335C19.7084 4.74077 19.7084 3.44441 18.9029 2.63895C18.0975 1.8335 16.8011 1.8335 14.2084 1.8335H7.79175C5.19902 1.8335 3.90266 1.8335 3.0972 2.63895C2.29175 3.44441 2.29175 4.74077 2.29175 7.3335V11.0002Z" stroke="#676D7C" stroke-width="1.5"/>
<path opacity="0.4" d="M7.33325 11.9165V9.1665M10.9999 11.9165V6.4165M14.6666 11.9165V10.0832" stroke="#676D7C" stroke-width="1.5" stroke-linecap="round"/>
</svg>
