<svg width="20" height="20" viewBox="0 0 20 20" fill="none" xmlns="http://www.w3.org/2000/svg">
<path d="M9.58342 17.5003C5.85147 17.5003 3.98549 17.5003 2.82611 16.341C1.66675 15.1816 1.66675 13.3156 1.66675 9.58366C1.66675 5.85171 1.66675 3.98573 2.82611 2.82636C3.98549 1.66699 5.85147 1.66699 9.58342 1.66699C13.3153 1.66699 15.1813 1.66699 16.3408 2.82636C17.5001 3.98573 17.5001 5.85171 17.5001 9.58366" stroke="#BCBCC4" stroke-width="1.5" stroke-linecap="round"/>
<path d="M1.66675 5.83301H17.5001" stroke="#BCBCC4" stroke-width="1.5" stroke-linejoin="round"/>
<path d="M8.33333 13.3333H9.16667M5 13.3333H5.83333M8.33333 10H11.6667M5 10H5.83333" stroke="#BCBCC4" stroke-width="1.5" stroke-linecap="round" stroke-linejoin="round"/>
<path d="M17.8911 18.7752C18.135 19.0195 18.5307 19.0198 18.775 18.776C19.0192 18.5321 19.0196 18.1364 18.7757 17.8921L17.8911 18.7752ZM16.4748 17.3565L17.8911 18.7752L18.7757 17.8921L17.3594 16.4733L16.4748 17.3565ZM18.2917 14.667C18.2917 12.665 16.6687 11.042 14.6667 11.042V12.292C15.9784 12.292 17.0417 13.3553 17.0417 14.667H18.2917ZM14.6667 11.042C12.6647 11.042 11.0417 12.665 11.0417 14.667H12.2917C12.2917 13.3553 13.3551 12.292 14.6667 12.292V11.042ZM11.0417 14.667C11.0417 16.669 12.6647 18.292 14.6667 18.292V17.042C13.3551 17.042 12.2917 15.9787 12.2917 14.667H11.0417ZM14.6667 18.292C16.6687 18.292 18.2917 16.669 18.2917 14.667H17.0417C17.0417 15.9787 15.9784 17.042 14.6667 17.042V18.292Z" fill="#BCBCC4"/>
</svg>
