<svg width="22" height="22" viewBox="0 0 22 22" fill="none" xmlns="http://www.w3.org/2000/svg">
<path d="M6.35937 9.16699C5.72602 9.17167 5.34491 9.1911 5.04134 9.27149C3.65973 9.63733 2.71382 10.8756 2.75106 12.2696C2.76185 12.6734 2.91557 13.1725 3.223 14.1706C3.96288 16.5727 5.20633 18.6581 7.99191 19.1584C8.50395 19.2503 9.08014 19.2503 10.2325 19.2503H11.7675C12.9199 19.2503 13.4961 19.2503 14.0081 19.1584C16.7937 18.6581 18.0372 16.5727 18.777 14.1706C19.0844 13.1725 19.2382 12.6734 19.2489 12.2696C19.2862 10.8756 18.3403 9.63733 16.9587 9.27149C16.6551 9.1911 16.2739 9.17167 15.6406 9.16699" stroke="#0560FD" stroke-width="2" stroke-linecap="round"/>
<path opacity="0.4" d="M11.0002 2.75V12.8333M11.0002 2.75C11.4295 2.75 11.7559 3.15159 12.4085 3.95478L13.2918 5.04167M11.0002 2.75C10.5708 2.75 10.2445 3.15159 9.5918 3.95478L8.7085 5.04167" stroke="#0560FD" stroke-width="2" stroke-linecap="round" stroke-linejoin="round"/>
</svg>
