<svg width="22" height="22" viewBox="0 0 22 22" fill="none" xmlns="http://www.w3.org/2000/svg">
<path d="M10.9999 12.8762C8.97656 12.6872 6.90295 13.1256 5.11269 14.1916C3.81582 14.9638 0.415504 16.5406 2.48652 18.5137C3.4982 19.4775 4.62495 20.1668 6.04155 20.1668H11.9166" stroke="#676D7C" stroke-width="1.5" stroke-linecap="round" stroke-linejoin="round"/>
<path d="M14.2083 5.9585C14.2083 8.23667 12.3614 10.0835 10.0833 10.0835C7.80508 10.0835 5.95825 8.23667 5.95825 5.9585C5.95825 3.68032 7.80508 1.8335 10.0833 1.8335C12.3614 1.8335 14.2083 3.68032 14.2083 5.9585Z" stroke="#676D7C" stroke-width="1.5"/>
<path opacity="0.4" d="M16.4992 12.8335C15.3383 12.8335 14.5857 13.5738 13.6954 13.8437C13.3334 13.9534 13.1524 14.0082 13.0792 14.0856C13.006 14.1628 12.9845 14.2759 12.9416 14.5019C12.4825 16.9204 13.4859 19.1563 15.8786 20.0266C16.1357 20.1201 16.2643 20.1668 16.5005 20.1668C16.7367 20.1668 16.8653 20.1201 17.1223 20.0266C19.5149 19.1563 20.5173 16.9204 20.0582 14.5019C20.0153 14.2759 19.9937 14.1628 19.9205 14.0855C19.8472 14.0081 19.6663 13.9533 19.3043 13.8437C18.4137 13.5739 17.6602 12.8335 16.4992 12.8335Z" stroke="#676D7C" stroke-width="1.5" stroke-linecap="round" stroke-linejoin="round"/>
</svg>
